<svg id="visual" viewBox="0 0 900 600" width="900" height="600" xmlns="http://www.w3.org/2000/svg" xmlns:xlink="http://www.w3.org/1999/xlink" version="1.1"><path d="M0 311L18.8 316.3C37.7 321.7 75.3 332.3 112.8 339.2C150.3 346 187.7 349 225.2 338.7C262.7 328.3 300.3 304.7 337.8 296.8C375.3 289 412.7 297 450.2 313C487.7 329 525.3 353 562.8 367.2C600.3 381.3 637.7 385.7 675.2 371.3C712.7 357 750.3 324 787.8 309C825.3 294 862.7 297 881.3 298.5L900 300L900 601L881.3 601C862.7 601 825.3 601 787.8 601C750.3 601 712.7 601 675.2 601C637.7 601 600.3 601 562.8 601C525.3 601 487.7 601 450.2 601C412.7 601 375.3 601 337.8 601C300.3 601 262.7 601 225.2 601C187.7 601 150.3 601 112.8 601C75.3 601 37.7 601 18.8 601L0 601Z" fill="#6600ff"></path><path d="M0 401L18.8 405.8C37.7 410.7 75.3 420.3 112.8 423.8C150.3 427.3 187.7 424.7 225.2 421.2C262.7 417.7 300.3 413.3 337.8 400.2C375.3 387 412.7 365 450.2 365.3C487.7 365.7 525.3 388.3 562.8 402.2C600.3 416 637.7 421 675.2 420.3C712.7 419.7 750.3 413.3 787.8 414.7C825.3 416 862.7 425 881.3 429.5L900 434L900 601L881.3 601C862.7 601 825.3 601 787.8 601C750.3 601 712.7 601 675.2 601C637.7 601 600.3 601 562.8 601C525.3 601 487.7 601 450.2 601C412.7 601 375.3 601 337.8 601C300.3 601 262.7 601 225.2 601C187.7 601 150.3 601 112.8 601C75.3 601 37.7 601 18.8 601L0 601Z" fill="#2c51ff"></path><path d="M0 460L18.8 455.8C37.7 451.7 75.3 443.3 112.8 437.3C150.3 431.3 187.7 427.7 225.2 429.7C262.7 431.7 300.3 439.3 337.8 449.2C375.3 459 412.7 471 450.2 470.2C487.7 469.3 525.3 455.7 562.8 451.5C600.3 447.3 637.7 452.7 675.2 447.8C712.7 443 750.3 428 787.8 418.7C825.3 409.3 862.7 405.7 881.3 403.8L900 402L900 601L881.3 601C862.7 601 825.3 601 787.8 601C750.3 601 712.7 601 675.2 601C637.7 601 600.3 601 562.8 601C525.3 601 487.7 601 450.2 601C412.7 601 375.3 601 337.8 601C300.3 601 262.7 601 225.2 601C187.7 601 150.3 601 112.8 601C75.3 601 37.7 601 18.8 601L0 601Z" fill="#0066ff"></path><path d="M0 466L18.8 466.7C37.7 467.3 75.3 468.7 112.8 472.5C150.3 476.3 187.7 482.7 225.2 479.3C262.7 476 300.3 463 337.8 467.3C375.3 471.7 412.7 493.3 450.2 501.7C487.7 510 525.3 505 562.8 506.8C600.3 508.7 637.7 517.3 675.2 514.8C712.7 512.3 750.3 498.7 787.8 496C825.3 493.3 862.7 501.7 881.3 505.8L900 510L900 601L881.3 601C862.7 601 825.3 601 787.8 601C750.3 601 712.7 601 675.2 601C637.7 601 600.3 601 562.8 601C525.3 601 487.7 601 450.2 601C412.7 601 375.3 601 337.8 601C300.3 601 262.7 601 225.2 601C187.7 601 150.3 601 112.8 601C75.3 601 37.7 601 18.8 601L0 601Z" fill="#2c51ff"></path><path d="M0 527L18.8 532.2C37.7 537.3 75.3 547.7 112.8 550.5C150.3 553.3 187.7 548.7 225.2 545C262.7 541.3 300.3 538.7 337.8 540.3C375.3 542 412.7 548 450.2 547C487.7 546 525.3 538 562.8 531.5C600.3 525 637.7 520 675.2 518.7C712.7 517.3 750.3 519.7 787.8 522.2C825.3 524.7 862.7 527.3 881.3 528.7L900 530L900 601L881.3 601C862.7 601 825.3 601 787.8 601C750.3 601 712.7 601 675.2 601C637.7 601 600.3 601 562.8 601C525.3 601 487.7 601 450.2 601C412.7 601 375.3 601 337.8 601C300.3 601 262.7 601 225.2 601C187.7 601 150.3 601 112.8 601C75.3 601 37.7 601 18.8 601L0 601Z" fill="#6600ff"></path></svg>